<svg width="24" height="24" viewBox="0 0 24 24" fill="currentColor" xmlns="http://www.w3.org/2000/svg">
<g clip-path="url(#clip0_240_1977)">
<path d="M4 3L5 3L5 0.999999L7 0.999999L7 3L17 3L17 1L19 1L19 3L20 3C21.1 3 22 3.9 22 5L22 21C22 22.1 21.1 23 20 23L4 23C2.9 23 2 22.1 2 21L2 5C2 3.9 2.9 3 4 3ZM4 21L20 21L20 8L4 8L4 21Z" fill="currentColor"/>
</g>
<defs>
<clipPath id="clip0_240_1977">
<rect width="24" height="24" fill="white" transform="matrix(-1 -8.74228e-08 -8.74228e-08 1 24 0)"/>
</clipPath>
</defs>
</svg>
